<?xml version="1.0" standalone="no"?>
<!DOCTYPE svg PUBLIC "-//W3C//DTD SVG 20010904//EN"
 "http://www.w3.org/TR/2001/REC-SVG-20010904/DTD/svg10.dtd">
<svg version="1.0" xmlns="http://www.w3.org/2000/svg"
 width="558.000000pt" height="558.000000pt" viewBox="0 0 558.000000 558.000000"
 preserveAspectRatio="xMidYMid meet">
<metadata>
Created by potrace 1.14, written by Peter Selinger 2001-2017
</metadata>
<g transform="translate(0.000000,558.000000) scale(0.100000,-0.100000)"
fill="#000000" stroke="none">
<path d="M3555 4310 c-239 -37 -423 -203 -511 -462 -45 -132 -57 -251 -51
-477 9 -303 43 -546 172 -1226 63 -334 102 -559 146 -845 30 -190 33 -423 6
-491 -36 -94 -122 -140 -217 -117 -61 15 -153 108 -203 204 -74 143 -142 351
-191 589 -38 185 -111 687 -271 1850 -41 303 -82 582 -91 620 -25 108 -66 186
-129 243 -91 83 -83 82 -602 82 -257 0 -453 -4 -453 -9 0 -8 25 -13 140 -27
155 -19 240 -117 240 -278 0 -38 -125 -729 -330 -1822 -181 -968 -330 -1768
-330 -1777 0 -16 49 -17 610 -17 494 0 610 2 610 13 0 7 -17 19 -37 26 -68 24
-184 102 -253 171 -251 252 -386 675 -409 1290 -12 316 9 731 55 1075 37 281
168 1191 172 1195 6 7 58 -56 87 -105 56 -94 87 -266 160 -870 19 -159 58
-452 85 -650 28 -198 62 -441 76 -540 49 -355 124 -673 209 -891 137 -349 316
-554 550 -627 95 -30 282 -31 368 -3 84 28 156 82 195 146 48 80 64 141 69
265 9 204 -34 504 -182 1275 -154 801 -180 986 -180 1280 1 182 4 230 22 313
48 219 143 337 282 354 64 7 114 -11 167 -59 76 -70 109 -186 148 -508 22
-184 406 -2991 424 -3100 l7 -45 293 -3 292 -2 0 27 c0 16 -4 55 -10 88 -5 33
-57 416 -115 850 -209 1557 -324 2354 -364 2518 -83 335 -251 490 -526 486
-44 -1 -102 -5 -130 -9z"/>
</g>
</svg>
