<svg xmlns="http://www.w3.org/2000/svg" xmlns:xlink="http://www.w3.org/1999/xlink" width="558" zoomAndPan="magnify" viewBox="0 0 418.5 418.499996" height="558" preserveAspectRatio="xMidYMid meet" version="1.0"><defs><g/><clipPath id="34bfe71aee"><path d="M 17.511719 0 L 400.738281 0 L 400.738281 418 L 17.511719 418 Z M 17.511719 0 " clip-rule="nonzero"/></clipPath><clipPath id="0472fda70a"><path d="M 273.011719 9.589844 C 253.375 3.800781 231.054688 0 209.144531 0 C 187.238281 0 166.15625 3.257812 146.726562 9.046875 C 146.3125 9.230469 145.902344 9.230469 145.488281 9.410156 C 72.527344 32.570312 18.792969 93.734375 17.757812 165.425781 L 17.757812 418.5 L 400.738281 418.5 L 400.738281 165.617188 C 399.707031 93.371094 346.796875 32.210938 273.011719 9.589844 " clip-rule="nonzero"/></clipPath></defs><g clip-path="url(#34bfe71aee)"><g clip-path="url(#0472fda70a)"><path fill="#f1e5d2" d="M 400.738281 418.5 L 17.511719 418.5 L 17.511719 -3.050781 L 400.738281 -3.050781 Z M 400.738281 418.5 " fill-opacity="1" fill-rule="nonzero"/></g></g><g fill="#545454" fill-opacity="1"><g transform="translate(59.7539, 391.967625)"><g><path d="M 97.796875 0 L 97.796875 -1.472656 C 32.402344 -25.332031 43.007812 -147.285156 50.371094 -200.011719 C 56.261719 -242.136719 56.261719 -241.84375 62.152344 -282.789062 C 72.757812 -274.246094 74.527344 -259.8125 77.765625 -236.246094 C 81.007812 -207.378906 83.363281 -188.820312 88.078125 -155.828125 C 93.671875 -122.835938 98.976562 -4.125 164.074219 -4.125 C 194.417969 -4.125 197.65625 -26.214844 197.65625 -39.472656 C 197.65625 -82.183594 169.671875 -182.339844 169.671875 -227.40625 C 169.671875 -248.617188 173.207031 -278.664062 195.003906 -278.664062 C 215.332031 -278.664062 215.035156 -246.261719 218.570312 -220.339844 C 230.058594 -136.386719 237.128906 -86.015625 248.910156 0 L 293.097656 0 C 281.3125 -86.015625 275.128906 -136.089844 262.757812 -220.632812 C 257.453125 -257.160156 255.980469 -297.515625 216.804688 -297.515625 C 182.929688 -297.515625 162.601562 -271.59375 164.371094 -227.113281 C 166.136719 -184.988281 178.804688 -132.261719 183.222656 -104.574219 C 189.996094 -61.269531 199.425781 -24.742188 175.859375 -24.742188 C 157.890625 -24.742188 145.515625 -67.160156 140.804688 -97.503906 C 131.378906 -159.066406 126.664062 -197.363281 116.945312 -265.703125 C 114.292969 -284.261719 104.574219 -294.570312 90.726562 -294.570312 L 27.101562 -294.570312 L 27.101562 -293.097656 C 32.992188 -292.507812 38 -291.917969 42.417969 -291.035156 C 63.039062 -283.671875 54.789062 -262.757812 51.84375 -245.082031 L 5.890625 0 Z M 97.796875 0 "/></g></g></g></svg>